<?xml version="1.0" encoding="UTF-8" standalone="no"?>
<!-- Created with Inkscape (http://www.inkscape.org/) -->

<svg
   width="2024"
   height="2024"
   viewBox="0 0 535.51665 535.51666"
   version="1.1"
   id="svg1"
   xml:space="preserve"
   sodipodi:docname="logo.svg"
   inkscape:version="1.4.4 (dcaf3e7, 2026-05-05)"
   xmlns:inkscape="http://www.inkscape.org/namespaces/inkscape"
   xmlns:sodipodi="http://sodipodi.sourceforge.net/DTD/sodipodi-0.dtd"
   xmlns:xlink="http://www.w3.org/1999/xlink"
   xmlns="http://www.w3.org/2000/svg"
   xmlns:svg="http://www.w3.org/2000/svg"><sodipodi:namedview
     id="namedview1"
     pagecolor="#ffffff"
     bordercolor="#000000"
     borderopacity="0.25"
     inkscape:showpageshadow="2"
     inkscape:pageopacity="0.0"
     inkscape:pagecheckerboard="true"
     inkscape:deskcolor="#d1d1d1"
     inkscape:document-units="mm"
     inkscape:zoom="0.14569328"
     inkscape:cx="-41.182407"
     inkscape:cy="936.89975"
     inkscape:window-width="1920"
     inkscape:window-height="1022"
     inkscape:window-x="0"
     inkscape:window-y="30"
     inkscape:window-maximized="0"
     inkscape:current-layer="layer1" /><defs
     id="defs1"><linearGradient
       id="linearGradient6"
       inkscape:collect="always"><stop
         style="stop-color:#00cf00;stop-opacity:1;"
         offset="0"
         id="stop6" /><stop
         style="stop-color:#008000;stop-opacity:1;"
         offset="1"
         id="stop7" /></linearGradient><linearGradient
       inkscape:collect="always"
       xlink:href="#linearGradient6"
       id="linearGradient7"
       x1="269.41885"
       y1="297.0191"
       x2="266.39658"
       y2="470.16522"
       gradientUnits="userSpaceOnUse" /></defs><g
     inkscape:label="Layer 1"
     inkscape:groupmode="layer"
     id="layer1"><path
       style="fill:#008000;stroke-width:1.81153"
       d="m 79.529947,385.30108 c 0.11689,-0.19771 4.57561,-8.12416 9.90832,-17.61436 5.33269,-9.49019 11.907243,-21.13726 14.610083,-25.88235 2.70283,-4.74511 12.94969,-22.86276 22.77081,-40.26144 9.82109,-17.3987 20.48951,-36.27126 23.70758,-41.93901 3.21806,-5.66774 8.34702,-14.72658 11.39766,-20.13072 3.05065,-5.40413 15.08697,-26.64924 26.74736,-47.21134 24.81964,-43.76726 25.83153,-45.5597 42.88662,-75.96947 21.73139,-38.747788 36.18019,-64.22658 36.4223,-64.22658 0.0848,0 2.40992,4.044114 5.16694,8.986932 10.28785,18.44421 59.52436,105.798528 71.52348,126.895398 3.74838,6.59043 12.5366,22.11984 19.52936,34.5098 17.16463,30.41279 34.35031,60.83492 40.61427,71.89545 38.5885,68.1374 51.29135,90.68891 51.29135,91.05804 0,0.13695 -16.9927,0.24914 -37.76156,0.24914 h -37.7616 l -0.7712,-1.31808 c -1.37361,-2.34761 -11.8106,-21.05581 -20.62806,-36.97555 -4.87396,-8.7998 -8.49763,-15.86013 -8.364,-16.29629 0.12971,-0.42325 1.53217,-3.57349 3.11662,-7.0005 5.81946,-12.58678 8.92829,-26.18584 9.94365,-43.49674 l 0.33033,-5.63179 h -7.28473 c -9.43502,0 -19.61021,0.76932 -28.31093,2.1405 -3.82414,0.60267 -7.08863,0.96073 -7.25446,0.7957 -0.26951,-0.26819 -39.30113,-69.13804 -49.28807,-86.96696 -2.18821,-3.90644 -4.14934,-6.92606 -4.35809,-6.71023 -0.63965,0.66135 -7.58051,12.7883 -29.45823,51.46902 -24.97058,44.14899 -23.96158,42.40577 -24.49322,42.31569 -10.99277,-1.86303 -24.38486,-3.04372 -34.52344,-3.04372 h -7.35959 v 4.19684 c 0,8.01969 2.10428,22.05491 4.59562,30.65197 1.4902,5.14239 4.92456,13.6004 7.45819,18.36787 l 1.91791,3.60886 -11.44267,20.83559 c -6.29348,11.45956 -12.94201,23.58398 -14.77452,26.94309 l -3.33186,6.10749 -38.49234,0.004 c -21.170783,0.002 -38.396723,-0.15815 -38.279883,-0.35588 z"
       id="path6" /><path
       style="fill:#008000;stroke-width:1.81153"
       d="m 474.31959,477.49739 c -6.15819,-3.69896 -80.40113,-47.3276 -85.07625,-49.99482 -1.84532,-1.0528 -8.42373,-4.82942 -14.61873,-8.39251 -10.85526,-6.24349 -32.80595,-18.27253 -37.50545,-20.5531 -1.25218,-0.60767 -2.27669,-1.27755 -2.27669,-1.48863 0,-0.21108 28.7402,-0.3807 63.8671,-0.3769 l 63.86711,0.007 1.26227,2.26979 c 1.6497,2.96643 14.77843,26.14852 25.48583,45.00173 l 8.48064,14.93239 v 3.29465 c 0,2.76189 -0.26145,3.83497 -1.61693,6.63624 -2.82943,5.84732 -9.15103,10.76942 -14.67935,11.42958 -1.99804,0.2386 -2.52745,0.035 -7.18955,-2.76534 z"
       id="path5" /><path
       style="fill:#008000;stroke-width:1.81153"
       d="m 53.576222,480.01716 c -8.08946,-1.46503 -14.974591,-9.01619 -15.736361,-17.25865 -0.291803,-3.15725 -0.273234,-3.22262 2.110515,-7.42919 1.322694,-2.33415 6.386161,-11.25371 11.252116,-19.82126 4.865973,-8.56754 11.613575,-20.53813 14.994635,-26.60131 3.3811,-6.06319 6.38952,-11.29436 6.68542,-11.62484 0.42717,-0.47713 13.71408,-0.57586 64.506033,-0.47931 l 63.96805,0.12155 -6.23093,3.30031 c -16.23599,8.59963 -33.84414,18.5526 -59.91286,33.86564 -10.01742,5.88434 -20.4782,12.02593 -23.24617,13.64798 -2.76798,1.62204 -11.39543,6.68793 -19.172133,11.25756 -7.77668,4.5696 -18.77668,10.98733 -24.44444,14.2616 -5.66774,3.27426 -10.520691,6.11611 -10.784306,6.31517 -0.931457,0.70343 -1.940176,0.81586 -3.989569,0.44471 z"
       id="path4" /><path
       style="fill:#00aa00;stroke-width:1.81153;fill-opacity:1"
       d="m 316.44108,483.04273 c -0.13441,-0.21755 -6.27638,-15.47735 -13.64878,-33.91067 -7.37238,-18.43335 -14.71628,-36.61947 -16.31978,-40.41363 -2.34649,-5.55218 -2.91546,-7.39957 -2.91546,-9.46623 v -2.56776 h 18.94275 18.94273 l 1.78712,1.15324 c 0.98291,0.63428 8.90474,5.51011 17.60409,10.83521 8.69936,5.32509 17.97387,11.03681 20.61002,12.69274 2.63617,1.65592 13.9597,8.68204 25.1634,15.61356 22.01746,13.62177 35.23408,21.8171 52.48368,32.5439 6.06316,3.77045 13.33808,8.28205 16.16647,10.02578 2.82837,1.74373 5.14701,3.33218 5.1525,3.52989 0.0145,0.49361 -143.66362,0.45764 -143.96874,-0.0361 z"
       id="path3" /><path
       style="fill:url(#linearGradient7);stroke-width:1.81153"
       d="m 232.12814,483.07883 c -0.30352,-0.54523 15.43321,-43.33294 25.42852,-69.13942 l 4.54824,-11.74291 -0.26015,-7.18955 c -0.42132,-11.6436 -2.91842,-18.63627 -8.73836,-24.47018 -3.52446,-3.53294 -6.33131,-5.17351 -14.12449,-8.25565 -15.01745,-5.93928 -25.37544,-12.55648 -34.79684,-22.22994 -5.90356,-6.06153 -9.56213,-11.15813 -13.33269,-18.57332 -5.13786,-10.10411 -8.52638,-22.10127 -9.21643,-32.63104 l -0.31447,-4.79848 7.62106,0.008 c 24.9996,0.0288 43.95643,8.27322 58.02542,25.23551 9.32251,11.23966 17.66769,31.49767 19.81005,48.08905 0.32336,2.50435 0.75686,5.41613 0.96334,6.47059 l 0.37539,1.91721 0.0513,-2.335 c 0.15417,-7.01575 3.2577,-20.99187 6.68617,-30.11051 5.92817,-15.76701 15.3019,-28.52284 27.05628,-36.81846 7.37172,-5.20255 18.19571,-9.53373 28.13568,-11.25833 6.2228,-1.07968 16.47087,-1.77957 20.73312,-1.41596 l 3.7146,0.3169 -0.01,2.46644 c -0.0202,5.63514 -2.0017,16.34634 -4.4023,23.79544 -7.55814,23.45315 -25.17761,41.00884 -51.18805,51.00276 -12.65496,4.86239 -17.59362,8.63441 -21.33049,16.29165 -2.78887,5.7147 -3.59325,9.90886 -3.59325,18.73564 0,5.25904 0.18536,7.42592 0.74998,8.76749 4.19166,9.95945 28.96678,76.44912 28.96678,77.73892 0,0.57811 -71.23816,0.70991 -71.55964,0.13242 z"
       id="path2" /><path
       style="fill:#00aa00;stroke-width:1.81153;fill-opacity:1"
       d="m 75.060337,483.01033 c 0,-0.23542 0.29408,-0.54087 0.65348,-0.6788 0.35943,-0.13786 6.34471,-3.79458 13.30066,-8.12593 6.95594,-4.33133 22.676593,-14.09893 34.934753,-21.70577 12.25817,-7.60686 26.60131,-16.50979 31.87363,-19.7843 5.27233,-3.27451 10.88017,-6.75383 12.46188,-7.73178 1.58169,-0.97796 5.78757,-3.58299 9.34639,-5.78894 3.55884,-2.20597 13.26472,-8.1735 21.56863,-13.26118 l 15.09805,-9.25035 18.93246,0.1205 18.93246,0.1205 -0.14475,2.6251 c -0.0795,1.44381 -0.68824,3.92419 -1.35258,5.51198 -0.66435,1.58779 -7.90364,19.60257 -16.08734,40.03287 -8.18371,20.43027 -15.09654,37.41556 -15.36187,37.74508 -0.38205,0.47449 -15.4266,0.59913 -72.31915,0.59913 -41.83393,0 -71.836733,-0.17881 -71.836733,-0.42801 z"
       id="path1" /></g></svg>
