<?xml version="1.0" encoding="UTF-8" standalone="no"?>
<!-- Created with Inkscape (http://www.inkscape.org/) -->

<svg
   width="2024"
   height="2024"
   viewBox="0 0 535.51665 535.51666"
   version="1.1"
   id="svg1"
   xml:space="preserve"
   sodipodi:docname="logo.svg"
   inkscape:version="1.4.4 (dcaf3e7, 2026-05-05)"
   xmlns:inkscape="http://www.inkscape.org/namespaces/inkscape"
   xmlns:sodipodi="http://sodipodi.sourceforge.net/DTD/sodipodi-0.dtd"
   xmlns:xlink="http://www.w3.org/1999/xlink"
   xmlns="http://www.w3.org/2000/svg"
   xmlns:svg="http://www.w3.org/2000/svg"><sodipodi:namedview
     id="namedview1"
     pagecolor="#ffffff"
     bordercolor="#000000"
     borderopacity="0.25"
     inkscape:showpageshadow="2"
     inkscape:pageopacity="0.0"
     inkscape:pagecheckerboard="true"
     inkscape:deskcolor="#d1d1d1"
     inkscape:document-units="mm"
     inkscape:zoom="0.12280118"
     inkscape:cx="1335.4921"
     inkscape:cy="1681.58"
     inkscape:window-width="1920"
     inkscape:window-height="1022"
     inkscape:window-x="0"
     inkscape:window-y="30"
     inkscape:window-maximized="0"
     inkscape:current-layer="layer1" /><defs
     id="defs1"><linearGradient
       id="linearGradient6"
       inkscape:collect="always"><stop
         style="stop-color:#00cf00;stop-opacity:1;"
         offset="0"
         id="stop6" /><stop
         style="stop-color:#008000;stop-opacity:1;"
         offset="1"
         id="stop7" /></linearGradient><linearGradient
       inkscape:collect="always"
       xlink:href="#linearGradient6"
       id="linearGradient7"
       x1="269.41885"
       y1="297.0191"
       x2="266.39658"
       y2="470.16522"
       gradientUnits="userSpaceOnUse" /></defs><g
     inkscape:label="Layer 1"
     inkscape:groupmode="layer"
     id="layer1"><g
       id="g1"
       transform="matrix(1.1945295,0,0,1.1945295,-52.157832,6.3197964)"><path
         style="fill:#008000;stroke-width:1.81153"
         d="m 79.529947,385.30108 c 0.11689,-0.19771 4.57561,-8.12416 9.90832,-17.61436 5.33269,-9.49019 11.907243,-21.13726 14.610083,-25.88235 2.70283,-4.74511 12.94969,-22.86276 22.77081,-40.26144 9.82109,-17.3987 20.48951,-36.27126 23.70758,-41.93901 3.21806,-5.66774 8.34702,-14.72658 11.39766,-20.13072 3.05065,-5.40413 15.08697,-26.64924 26.74736,-47.21134 24.81964,-43.76726 25.83153,-45.5597 42.88662,-75.96947 21.73139,-38.747788 36.18019,-64.22658 36.4223,-64.22658 0.0848,0 2.40992,4.044114 5.16694,8.986932 10.28785,18.44421 59.52436,105.798528 71.52348,126.895398 3.74838,6.59043 12.5366,22.11984 19.52936,34.5098 17.16463,30.41279 34.35031,60.83492 40.61427,71.89545 38.5885,68.1374 51.29135,90.68891 51.29135,91.05804 0,0.13695 -16.9927,0.24914 -37.76156,0.24914 h -37.7616 l -0.7712,-1.31808 c -1.37361,-2.34761 -11.8106,-21.05581 -20.62806,-36.97555 -4.87396,-8.7998 -8.49763,-15.86013 -8.364,-16.29629 0.12971,-0.42325 1.53217,-3.57349 3.11662,-7.0005 5.81946,-12.58678 8.92829,-26.18584 9.94365,-43.49674 l 0.33033,-5.63179 h -7.28473 c -9.43502,0 -19.61021,0.76932 -28.31093,2.1405 -3.82414,0.60267 -7.08863,0.96073 -7.25446,0.7957 -0.26951,-0.26819 -39.30113,-69.13804 -49.28807,-86.96696 -2.18821,-3.90644 -4.14934,-6.92606 -4.35809,-6.71023 -0.63965,0.66135 -7.58051,12.7883 -29.45823,51.46902 -24.97058,44.14899 -23.96158,42.40577 -24.49322,42.31569 -10.99277,-1.86303 -24.38486,-3.04372 -34.52344,-3.04372 h -7.35959 v 4.19684 c 0,8.01969 2.10428,22.05491 4.59562,30.65197 1.4902,5.14239 4.92456,13.6004 7.45819,18.36787 l 1.91791,3.60886 -11.44267,20.83559 c -6.29348,11.45956 -12.94201,23.58398 -14.77452,26.94309 l -3.33186,6.10749 -38.49234,0.004 c -21.170783,0.002 -38.396723,-0.15815 -38.279883,-0.35588 z"
         id="path6" /><path
         id="path2"
         style="fill:url(#linearGradient7);stroke-width:1.81153"
         d="m 350.77911,283.83022 c -4.26225,-0.36361 -14.51031,0.33625 -20.73311,1.41593 -9.93997,1.7246 -20.76403,6.0562 -28.13575,11.25875 -11.75438,8.29562 -21.12806,21.05141 -27.05623,36.81842 -3.42847,9.11864 -6.53172,23.09456 -6.68589,30.11031 l -0.0512,2.33526 -0.37569,-1.9172 c -0.20648,-1.05446 -0.63989,-3.96657 -0.96325,-6.47092 -2.14236,-16.59138 -10.48765,-36.84939 -19.81016,-48.08905 -14.06899,-16.96229 -33.0258,-25.20636 -58.0254,-25.23516 l -7.62124,-0.008 0.31471,4.79867 c 0.69005,10.52977 4.07863,22.52697 9.21649,32.63108 3.77056,7.41519 7.42896,12.5115 13.33252,18.57303 9.4214,9.67346 19.7794,16.29089 34.79685,22.23017 7.79318,3.08214 10.60025,4.72237 14.12471,8.25531 3.37832,3.38642 5.63676,7.16339 7.01973,12.01373 l 15.4466,0.002 c 0.50901,-1.58947 1.16214,-3.15178 1.99006,-4.84828 3.73687,-7.65724 8.67552,-11.42912 21.33048,-16.29151 26.01044,-9.99392 43.62995,-27.54942 51.18809,-51.00257 2.4006,-7.4491 4.38212,-18.16031 4.40232,-23.79545 l 0.0103,-2.46652 z" /></g></g></svg>
